<?xml version="1.0" standalone="no"?>
<!DOCTYPE svg PUBLIC "-//W3C//DTD SVG 20010904//EN"
 "http://www.w3.org/TR/2001/REC-SVG-20010904/DTD/svg10.dtd">
<svg version="1.0" xmlns="http://www.w3.org/2000/svg"
 width="291.000000pt" height="173.000000pt" viewBox="0 0 291.000000 173.000000"
 preserveAspectRatio="xMidYMid meet">

<g transform="translate(0.000000,173.000000) scale(0.100000,-0.100000)"
fill="#000000" stroke="none">
<path d="M1242 1434 c-127 -34 -233 -96 -318 -186 -48 -50 -109 -136 -102
-143 8 -7 232 -125 233 -122 1 1 12 19 24 39 44 73 142 137 245 158 72 15 142
7 221 -25 33 -13 53 -19 45 -12 -15 11 -16 47 -2 47 4 0 23 30 42 67 19 37 41
73 48 81 6 7 12 18 12 23 0 6 8 5 20 -1 11 -6 20 -8 20 -5 0 11 -130 65 -193
80 -78 18 -225 18 -295 -1z"/>
<path d="M462 770 l-62 -118 278 -146 c420 -220 440 -227 601 -227 158 1 300
51 418 149 57 48 153 166 153 190 0 5 -52 37 -115 70 l-116 60 -29 -43 c-79
-115 -234 -179 -372 -155 -62 11 -144 50 -563 271 l-130 68 -63 -119z"/>
</g>
</svg>
